<?xml version="1.0" encoding="UTF-8"?>
<svg width="700pt" height="700pt" version="1.1" viewBox="0 0 700 700" xmlns="http://www.w3.org/2000/svg" xmlns:xlink="http://www.w3.org/1999/xlink">
 <defs>
  <symbol id="z" overflow="visible">
   <path d="m2.8438-0.17188c-0.14844 0.074219-0.29688 0.13281-0.45312 0.17188s-0.32422 0.0625-0.5 0.0625c-0.52344 0-0.93359-0.14453-1.2344-0.4375-0.29297-0.28906-0.4375-0.67969-0.4375-1.1719 0-0.48828 0.14453-0.87891 0.4375-1.1719 0.30078-0.28906 0.71094-0.4375 1.2344-0.4375 0.17578 0 0.34375 0.023438 0.5 0.0625 0.15625 0.042969 0.30469 0.10156 0.45312 0.17188v0.64062c-0.14844-0.10156-0.29297-0.17578-0.4375-0.21875-0.14844-0.050781-0.29688-0.078125-0.45312-0.078125-0.28125 0-0.50781 0.09375-0.67188 0.28125-0.16797 0.17969-0.25 0.42969-0.25 0.75 0 0.32422 0.082031 0.57812 0.25 0.76562 0.16406 0.17969 0.39062 0.26562 0.67188 0.26562 0.15625 0 0.30469-0.019531 0.45312-0.0625 0.14453-0.050781 0.28906-0.12891 0.4375-0.23438z"/>
  </symbol>
  <symbol id="c" overflow="visible">
   <path d="m2.0781-1.6875c-0.0625-0.03125-0.125-0.050781-0.1875-0.0625-0.0625-0.019531-0.125-0.03125-0.1875-0.03125-0.19922 0-0.35156 0.0625-0.45312 0.1875-0.10547 0.125-0.15625 0.29688-0.15625 0.51562v1.0781h-0.73438v-2.3281h0.73438v0.39062c0.10156-0.15625 0.21094-0.26562 0.32812-0.32812 0.125-0.070313 0.27344-0.10938 0.45312-0.10938h0.078125c0.03125 0 0.070313 0.007812 0.125 0.015625z"/>
  </symbol>
  <symbol id="a" overflow="visible">
   <path d="m2.6719-1.1719v0.21875h-1.7344c0.019531 0.17969 0.082031 0.30859 0.1875 0.39062 0.11328 0.085938 0.26562 0.125 0.45312 0.125 0.15625 0 0.31641-0.019531 0.48438-0.0625 0.16406-0.050781 0.33203-0.125 0.5-0.21875v0.57812c-0.17969 0.0625-0.35547 0.10938-0.53125 0.14062-0.16797 0.039062-0.33984 0.0625-0.51562 0.0625-0.42969 0-0.75781-0.10156-0.98438-0.3125-0.23047-0.21875-0.34375-0.51953-0.34375-0.90625 0-0.38281 0.11328-0.67969 0.34375-0.89062 0.22656-0.21875 0.53906-0.32812 0.9375-0.32812 0.36328 0 0.65625 0.10938 0.875 0.32812s0.32812 0.51172 0.32812 0.875zm-0.76562-0.25c0-0.13281-0.042969-0.24219-0.125-0.32812-0.074219-0.09375-0.17969-0.14062-0.3125-0.14062-0.14844 0-0.26562 0.042969-0.35938 0.125-0.085937 0.085937-0.13672 0.19922-0.15625 0.34375z"/>
  </symbol>
  <symbol id="l" overflow="visible">
   <path d="m1.4062-1.0469c-0.15625 0-0.27734 0.027344-0.35938 0.078125-0.074219 0.054688-0.10938 0.13281-0.10938 0.23438 0 0.09375 0.03125 0.16797 0.09375 0.21875 0.0625 0.054687 0.14453 0.078125 0.25 0.078125 0.14453 0 0.26562-0.046875 0.35938-0.14062 0.09375-0.10156 0.14062-0.22656 0.14062-0.375v-0.09375zm1.125-0.28125v1.3281h-0.75v-0.34375c-0.09375 0.13672-0.20312 0.24219-0.32812 0.3125-0.125 0.0625-0.27734 0.09375-0.45312 0.09375-0.24219 0-0.4375-0.066406-0.59375-0.20312-0.14844-0.14453-0.21875-0.33203-0.21875-0.5625 0-0.26953 0.09375-0.46875 0.28125-0.59375s0.47656-0.1875 0.875-0.1875h0.4375v-0.0625c0-0.11328-0.046875-0.19531-0.14062-0.25-0.09375-0.0625-0.23438-0.09375-0.42188-0.09375-0.16797 0-0.32031 0.015625-0.45312 0.046875-0.13672 0.03125-0.26172 0.078125-0.375 0.14062v-0.5625c0.15625-0.03125 0.3125-0.054687 0.46875-0.078125 0.16406-0.019531 0.32812-0.03125 0.48438-0.03125 0.41406 0 0.71875 0.085938 0.90625 0.25 0.1875 0.15625 0.28125 0.42188 0.28125 0.79688z"/>
  </symbol>
  <symbol id="b" overflow="visible">
   <path d="m1.1719-2.9844v0.65625h0.76562v0.53125h-0.76562v0.98438c0 0.11719 0.019531 0.19531 0.0625 0.23438 0.039063 0.03125 0.125 0.046875 0.25 0.046875h0.39062v0.53125h-0.64062c-0.29297 0-0.5-0.0625-0.625-0.1875s-0.1875-0.33203-0.1875-0.625v-0.98438h-0.35938v-0.53125h0.35938v-0.65625z"/>
  </symbol>
  <symbol id="k" overflow="visible">
   <path d="m1.9375-1.9844v-1.25h0.75v3.2344h-0.75v-0.34375c-0.10547 0.14844-0.21875 0.25-0.34375 0.3125-0.11719 0.0625-0.25781 0.09375-0.42188 0.09375-0.28125 0-0.51562-0.11328-0.70312-0.34375-0.1875-0.22656-0.28125-0.51953-0.28125-0.875 0-0.36328 0.09375-0.65625 0.28125-0.875 0.1875-0.22656 0.42188-0.34375 0.70312-0.34375 0.15625 0 0.29688 0.03125 0.42188 0.09375s0.23828 0.16406 0.34375 0.29688zm-0.48438 1.5c0.15625 0 0.27344-0.054687 0.35938-0.17188 0.082031-0.11328 0.125-0.28125 0.125-0.5s-0.042969-0.38281-0.125-0.5c-0.085938-0.125-0.20312-0.1875-0.35938-0.1875s-0.28125 0.0625-0.375 0.1875c-0.085937 0.11719-0.125 0.28125-0.125 0.5s0.039063 0.38672 0.125 0.5c0.09375 0.11719 0.21875 0.17188 0.375 0.17188z"/>
  </symbol>
  <symbol id="j" overflow="visible">
   <path d="m1.5938-0.48438c0.15625 0 0.27344-0.054687 0.35938-0.17188 0.082031-0.11328 0.125-0.28125 0.125-0.5s-0.042969-0.38281-0.125-0.5c-0.085937-0.125-0.20312-0.1875-0.35938-0.1875s-0.28125 0.0625-0.375 0.1875c-0.085938 0.11719-0.125 0.28125-0.125 0.5s0.039062 0.38672 0.125 0.5c0.09375 0.11719 0.21875 0.17188 0.375 0.17188zm-0.5-1.5c0.10156-0.13281 0.21875-0.23438 0.34375-0.29688s0.26953-0.09375 0.4375-0.09375c0.28125 0 0.50781 0.11719 0.6875 0.34375 0.1875 0.21875 0.28125 0.51172 0.28125 0.875 0 0.35547-0.09375 0.64844-0.28125 0.875-0.17969 0.23047-0.40625 0.34375-0.6875 0.34375-0.16797 0-0.3125-0.03125-0.4375-0.09375-0.125-0.070312-0.24219-0.17578-0.34375-0.3125v0.34375h-0.73438v-3.2344h0.73438z"/>
  </symbol>
  <symbol id="i" overflow="visible">
   <path d="m0.046875-2.3281h0.75l0.625 1.5781 0.53125-1.5781h0.73438l-0.96875 2.5469c-0.10547 0.25781-0.22656 0.44141-0.35938 0.54688-0.125 0.10156-0.29297 0.15625-0.5 0.15625h-0.4375v-0.5h0.23438c0.125 0 0.21094-0.023437 0.26562-0.0625 0.0625-0.03125 0.10938-0.10156 0.14062-0.20312l0.03125-0.0625z"/>
  </symbol>
  <symbol id="h" overflow="visible">
   <path d="m1.8906 0.0625h-0.0625c-0.51172 0-0.90625-0.14062-1.1875-0.42188-0.28125-0.28906-0.42188-0.6875-0.42188-1.1875s0.14062-0.89062 0.42188-1.1719c0.28125-0.28906 0.67188-0.4375 1.1719-0.4375s0.89062 0.14062 1.1719 0.42188 0.42188 0.67969 0.42188 1.1875c0 0.35547-0.078125 0.65625-0.23438 0.90625-0.14844 0.25-0.35938 0.4375-0.64062 0.5625l0.625 0.70312h-0.76562zm-0.078125-2.6406c-0.25 0-0.44531 0.09375-0.57812 0.28125-0.13672 0.17969-0.20312 0.42969-0.20312 0.75 0 0.33594 0.066406 0.58984 0.20312 0.76562 0.13281 0.17969 0.32812 0.26562 0.57812 0.26562 0.23828 0 0.42578-0.085937 0.5625-0.26562 0.13281-0.1875 0.20312-0.44141 0.20312-0.76562 0-0.32031-0.070313-0.57031-0.20312-0.75-0.13672-0.1875-0.32422-0.28125-0.5625-0.28125z"/>
  </symbol>
  <symbol id="y" overflow="visible">
   <path d="m1.8125-2.5781c-0.25 0-0.44531 0.09375-0.57812 0.28125-0.13672 0.17969-0.20312 0.42969-0.20312 0.75 0 0.32422 0.066406 0.57812 0.20312 0.76562 0.13281 0.17969 0.32812 0.26562 0.57812 0.26562 0.23828 0 0.42578-0.085937 0.5625-0.26562 0.13281-0.1875 0.20312-0.44141 0.20312-0.76562 0-0.32031-0.070313-0.57031-0.20312-0.75-0.13672-0.1875-0.32422-0.28125-0.5625-0.28125zm0-0.57812c0.48828 0 0.875 0.14844 1.1562 0.4375 0.28906 0.28125 0.4375 0.67188 0.4375 1.1719s-0.14844 0.89844-0.4375 1.1875c-0.28125 0.28125-0.66797 0.42188-1.1562 0.42188-0.5 0-0.89062-0.14062-1.1719-0.42188-0.28125-0.28906-0.42188-0.6875-0.42188-1.1875s0.14062-0.89062 0.42188-1.1719c0.28125-0.28906 0.67188-0.4375 1.1719-0.4375z"/>
  </symbol>
  <symbol id="g" overflow="visible">
   <path d="m0.39062-3.0938h0.79688v2.4844h1.4062v0.60938h-2.2031z"/>
  </symbol>
  <symbol id="x" overflow="visible">
   <path d="m1.625-1.9062c0.125 0 0.21875-0.023438 0.28125-0.078125 0.070312-0.050781 0.10938-0.13281 0.10938-0.25 0-0.10156-0.039063-0.17969-0.10938-0.23438-0.0625-0.050781-0.15625-0.078125-0.28125-0.078125h-0.4375v0.64062zm0.03125 1.3594c0.16406 0 0.28516-0.03125 0.35938-0.09375 0.082031-0.070313 0.125-0.17578 0.125-0.3125 0-0.13281-0.042969-0.23438-0.125-0.29688-0.074219-0.070312-0.19531-0.10938-0.35938-0.10938h-0.46875v0.8125zm0.75-1.1094c0.16406 0.054688 0.29688 0.14844 0.39062 0.28125 0.09375 0.125 0.14062 0.28906 0.14062 0.48438 0 0.30469-0.10547 0.52734-0.3125 0.67188-0.19922 0.14844-0.5 0.21875-0.90625 0.21875h-1.3281v-3.0938h1.2031c0.42578 0 0.73438 0.070312 0.92188 0.20312 0.19531 0.125 0.29688 0.32812 0.29688 0.60938 0 0.15625-0.039062 0.28906-0.10938 0.39062-0.0625 0.10547-0.16406 0.18359-0.29688 0.23438z"/>
  </symbol>
  <symbol id="e" overflow="visible">
   <path d="m0.39062-3.0938h0.79688v3.0938h-0.79688z"/>
  </symbol>
  <symbol id="f" overflow="visible">
   <path d="m0.39062-3.0938h0.89062l1.125 2.125v-2.125h0.76562v3.0938h-0.89062l-1.1406-2.125v2.125h-0.75z"/>
  </symbol>
  <symbol id="w" overflow="visible">
   <path d="m2.5469-3v0.65625c-0.16797-0.070312-0.33594-0.12891-0.5-0.17188-0.15625-0.039063-0.30859-0.0625-0.45312-0.0625-0.19922 0-0.34375 0.027344-0.4375 0.078125-0.085938 0.054688-0.125 0.13672-0.125 0.25 0 0.085938 0.03125 0.15234 0.09375 0.20312 0.0625 0.042969 0.17188 0.078125 0.32812 0.10938l0.34375 0.0625c0.34375 0.074219 0.58594 0.18359 0.73438 0.32812 0.14453 0.13672 0.21875 0.33594 0.21875 0.59375 0 0.34375-0.10547 0.60156-0.3125 0.76562-0.19922 0.16797-0.50781 0.25-0.92188 0.25-0.19922 0-0.39844-0.023438-0.59375-0.0625-0.19922-0.03125-0.39844-0.082031-0.59375-0.15625v-0.6875c0.19531 0.11719 0.39062 0.19922 0.57812 0.25 0.1875 0.054688 0.36328 0.078125 0.53125 0.078125 0.17578 0 0.3125-0.023437 0.40625-0.078125 0.09375-0.0625 0.14062-0.14844 0.14062-0.26562 0-0.09375-0.03125-0.16406-0.09375-0.21875-0.0625-0.050781-0.1875-0.097656-0.375-0.14062l-0.3125-0.0625c-0.3125-0.070312-0.54297-0.17969-0.6875-0.32812-0.13672-0.14453-0.20312-0.33594-0.20312-0.57812 0-0.3125 0.097656-0.55078 0.29688-0.71875 0.19531-0.16406 0.48438-0.25 0.85938-0.25 0.16406 0 0.33594 0.015625 0.51562 0.046875 0.1875 0.023437 0.375 0.058594 0.5625 0.10938z"/>
  </symbol>
  <symbol id="v" overflow="visible">
   <path d="m2.2656-0.5625h-1.25l-0.1875 0.5625h-0.8125l1.1562-3.0938h0.95312l1.1406 3.0938h-0.79688zm-1.0469-0.57812h0.84375l-0.42188-1.2344z"/>
  </symbol>
  <symbol id="u" overflow="visible">
   <path d="m0.39062-3.0938h1.0156l0.70312 1.6562 0.71875-1.6562h1.0156v3.0938h-0.76562v-2.2656l-0.70312 1.6719h-0.51562l-0.71875-1.6719v2.2656h-0.75z"/>
  </symbol>
  <symbol id="t" overflow="visible">
   <path d="m1.8906-3.2344v0.5h-0.42188c-0.10547 0-0.17969 0.023437-0.21875 0.0625-0.042969 0.03125-0.0625 0.09375-0.0625 0.1875v0.15625h0.64062v0.53125h-0.64062v1.7969h-0.73438v-1.7969h-0.375v-0.53125h0.375v-0.15625c0-0.25 0.066406-0.4375 0.20312-0.5625 0.14453-0.125 0.36328-0.1875 0.65625-0.1875z"/>
  </symbol>
  <symbol id="d" overflow="visible">
   <path d="m1.4688-1.8438c-0.16797 0-0.29688 0.058594-0.39062 0.17188-0.085937 0.11719-0.125 0.28906-0.125 0.51562 0 0.21875 0.039063 0.39062 0.125 0.51562 0.09375 0.11719 0.22266 0.17188 0.39062 0.17188 0.15625 0 0.27344-0.054688 0.35938-0.17188 0.09375-0.125 0.14062-0.29688 0.14062-0.51562 0-0.22656-0.046875-0.39844-0.14062-0.51562-0.085937-0.11328-0.20312-0.17188-0.35938-0.17188zm0-0.53125c0.39453 0 0.70312 0.10938 0.92188 0.32812 0.22656 0.21094 0.34375 0.50781 0.34375 0.89062 0 0.375-0.11719 0.67188-0.34375 0.89062-0.21875 0.21875-0.52734 0.32812-0.92188 0.32812-0.40625 0-0.72656-0.10938-0.95312-0.32812-0.21875-0.21875-0.32812-0.51562-0.32812-0.89062 0-0.38281 0.10938-0.67969 0.32812-0.89062 0.22656-0.21875 0.54688-0.32812 0.95312-0.32812z"/>
  </symbol>
  <symbol id="s" overflow="visible">
   <path d="m2.5156-1.9375c0.09375-0.14453 0.20312-0.25391 0.32812-0.32812 0.13281-0.070313 0.27344-0.10938 0.42188-0.10938 0.26953 0 0.47266 0.085938 0.60938 0.25 0.14453 0.15625 0.21875 0.39062 0.21875 0.70312v1.4219h-0.75v-1.2188-0.046875-0.078125c0-0.16406-0.027344-0.28516-0.078125-0.35938-0.042969-0.070313-0.11719-0.10938-0.21875-0.10938-0.14844 0-0.26172 0.058594-0.34375 0.17188-0.074219 0.11719-0.10938 0.28125-0.10938 0.5v1.1406h-0.75v-1.2188c0-0.25-0.023438-0.41016-0.0625-0.48438-0.042969-0.070313-0.12109-0.10938-0.23438-0.10938-0.14844 0-0.26172 0.058594-0.34375 0.17188-0.074219 0.11719-0.10938 0.28125-0.10938 0.5v1.1406h-0.73438v-2.3281h0.73438v0.34375c0.09375-0.13281 0.19531-0.23438 0.3125-0.29688 0.125-0.0625 0.25781-0.09375 0.40625-0.09375 0.15625 0 0.29688 0.042969 0.42188 0.125 0.125 0.074219 0.21875 0.17969 0.28125 0.3125z"/>
  </symbol>
  <symbol id="r" overflow="visible">
   <path d="m2.6875-1.4219v1.4219h-0.73438v-1.0781c0-0.20703-0.007813-0.34766-0.015625-0.42188-0.011719-0.070312-0.027344-0.12891-0.046875-0.17188-0.03125-0.039063-0.074219-0.070313-0.125-0.09375-0.054687-0.03125-0.10938-0.046875-0.17188-0.046875-0.15625 0-0.28125 0.058594-0.375 0.17188-0.085938 0.11719-0.125 0.28125-0.125 0.5v1.1406h-0.73438v-3.2344h0.73438v1.25c0.11328-0.13281 0.23438-0.23438 0.35938-0.29688s0.26562-0.09375 0.42188-0.09375c0.26953 0 0.47266 0.085938 0.60938 0.25 0.13281 0.15625 0.20312 0.39062 0.20312 0.70312z"/>
  </symbol>
  <symbol id="q" overflow="visible">
   <path d="m0.32812-0.90625v-1.4219h0.75v0.23438 0.48438 0.375c0 0.1875 0.003906 0.32422 0.015625 0.40625 0.007812 0.085937 0.023438 0.14062 0.046875 0.17188 0.03125 0.054688 0.066406 0.09375 0.10938 0.125 0.050781 0.023438 0.10938 0.03125 0.17188 0.03125 0.15625 0 0.27344-0.054688 0.35938-0.17188 0.09375-0.125 0.14062-0.28906 0.14062-0.5v-1.1562h0.75v2.3281h-0.75v-0.34375c-0.11719 0.13672-0.23438 0.24219-0.35938 0.3125-0.125 0.0625-0.26172 0.09375-0.40625 0.09375-0.27344 0-0.48047-0.082031-0.625-0.25-0.13672-0.16406-0.20312-0.40625-0.20312-0.71875z"/>
  </symbol>
  <symbol id="p" overflow="visible">
   <path d="m2.6875-1.4219v1.4219h-0.73438v-1.0781c0-0.20703-0.007813-0.34766-0.015625-0.42188-0.011719-0.070312-0.027344-0.12891-0.046875-0.17188-0.03125-0.039063-0.074219-0.070313-0.125-0.09375-0.054687-0.03125-0.10938-0.046875-0.17188-0.046875-0.15625 0-0.28125 0.058594-0.375 0.17188-0.085938 0.11719-0.125 0.28125-0.125 0.5v1.1406h-0.73438v-2.3281h0.73438v0.34375c0.11328-0.13281 0.23438-0.23438 0.35938-0.29688s0.26562-0.09375 0.42188-0.09375c0.26953 0 0.47266 0.085938 0.60938 0.25 0.13281 0.15625 0.20312 0.39062 0.20312 0.70312z"/>
  </symbol>
  <symbol id="o" overflow="visible">
   <path d="m0.39062-3.0938h1.3281c0.39453 0 0.69531 0.089844 0.90625 0.26562 0.20703 0.16797 0.3125 0.41406 0.3125 0.73438 0 0.33594-0.10547 0.58984-0.3125 0.76562-0.21094 0.16797-0.51172 0.25-0.90625 0.25h-0.53125v1.0781h-0.79688zm0.79688 0.57812v0.85938h0.4375c0.15625 0 0.27344-0.035156 0.35938-0.10938 0.082031-0.070313 0.125-0.17969 0.125-0.32812 0-0.13281-0.042969-0.23828-0.125-0.3125-0.085937-0.070312-0.20312-0.10938-0.35938-0.10938z"/>
  </symbol>
  <symbol id="n" overflow="visible">
   <path d="m0.35938-2.3281h0.73438v2.2812c0 0.3125-0.074219 0.55078-0.21875 0.71875-0.14844 0.16406-0.36719 0.25-0.65625 0.25h-0.35938v-0.5h0.125c0.14453 0 0.24219-0.03125 0.29688-0.09375 0.050781-0.0625 0.078125-0.1875 0.078125-0.375zm0-0.90625h0.73438v0.60938h-0.73438z"/>
  </symbol>
  <symbol id="m" overflow="visible">
   <path d="m2.2344-2.25v0.60938c-0.10547-0.070313-0.21094-0.125-0.3125-0.15625-0.09375-0.03125-0.19922-0.046875-0.3125-0.046875-0.21094 0-0.37109 0.0625-0.48438 0.1875-0.11719 0.11719-0.17188 0.28125-0.17188 0.5s0.054687 0.39062 0.17188 0.51562c0.11328 0.11719 0.27344 0.17188 0.48438 0.17188 0.11328 0 0.22266-0.015625 0.32812-0.046875 0.11328-0.039063 0.21094-0.09375 0.29688-0.15625v0.60938c-0.11719 0.042969-0.23438 0.070312-0.35938 0.09375-0.11719 0.019531-0.23438 0.03125-0.35938 0.03125-0.41797 0-0.74609-0.10156-0.98438-0.3125-0.23047-0.21875-0.34375-0.51953-0.34375-0.90625 0-0.38281 0.11328-0.67969 0.34375-0.89062 0.23828-0.21875 0.56641-0.32812 0.98438-0.32812 0.125 0 0.24219 0.011719 0.35938 0.03125 0.125 0.023438 0.24219 0.054688 0.35938 0.09375z"/>
  </symbol>
 </defs>
 <g>
  <path d="m495.09 7.6367c-10.184-10.184-27.152-10.184-37.332 0l-253.7 253.7c-4.2422 4.2422-6.7891 11.031-7.6367 17.816v2.543c0.84766 6.7891 3.3945 12.727 7.6367 16.969l253.7 253.7c10.184 10.184 27.152 10.184 37.332 0 11.031-10.184 11.031-27.152 0-38.184l-234.18-234.18 234.18-234.18c11.031-10.184 11.031-28 0-38.184z" fill-rule="evenodd"/>
  <use x="196.425781" y="572.726562" xlink:href="#z"/>
  <use x="199.539063" y="572.726562" xlink:href="#c"/>
  <use x="201.628906" y="572.726562" xlink:href="#a"/>
  <use x="204.507813" y="572.726562" xlink:href="#l"/>
  <use x="207.371094" y="572.726562" xlink:href="#b"/>
  <use x="209.398438" y="572.726562" xlink:href="#a"/>
  <use x="212.273438" y="572.726562" xlink:href="#k"/>
  <use x="216.789063" y="572.726562" xlink:href="#j"/>
  <use x="219.824219" y="572.726562" xlink:href="#i"/>
  <use x="224.070313" y="572.726562" xlink:href="#h"/>
  <use x="227.675781" y="572.726562" xlink:href="#y"/>
  <use x="231.28125" y="572.726562" xlink:href="#g"/>
  <use x="233.984375" y="572.726562" xlink:href="#x"/>
  <use x="237.21875" y="572.726562" xlink:href="#e"/>
  <use x="238.796875" y="572.726562" xlink:href="#f"/>
  <use x="243.824219" y="572.726562" xlink:href="#w"/>
  <use x="246.878906" y="572.726562" xlink:href="#v"/>
  <use x="250.164063" y="572.726562" xlink:href="#g"/>
  <use x="252.867188" y="572.726562" xlink:href="#e"/>
  <use x="254.445312" y="572.726562" xlink:href="#e"/>
  <use x="256.023438" y="572.726562" xlink:href="#u"/>
  <use x="196.425781" y="576.96875" xlink:href="#t"/>
  <use x="198.269531" y="576.96875" xlink:href="#c"/>
  <use x="200.363281" y="576.96875" xlink:href="#d"/>
  <use x="203.277344" y="576.96875" xlink:href="#s"/>
  <use x="209.175781" y="576.96875" xlink:href="#b"/>
  <use x="211.203125" y="576.96875" xlink:href="#r"/>
  <use x="214.222656" y="576.96875" xlink:href="#a"/>
  <use x="218.578125" y="576.96875" xlink:href="#f"/>
  <use x="222.128906" y="576.96875" xlink:href="#d"/>
  <use x="225.042969" y="576.96875" xlink:href="#q"/>
  <use x="228.0625" y="576.96875" xlink:href="#p"/>
  <use x="232.558594" y="576.96875" xlink:href="#o"/>
  <use x="235.667969" y="576.96875" xlink:href="#c"/>
  <use x="237.761719" y="576.96875" xlink:href="#d"/>
  <use x="240.675781" y="576.96875" xlink:href="#n"/>
  <use x="242.128906" y="576.96875" xlink:href="#a"/>
  <use x="245.007813" y="576.96875" xlink:href="#m"/>
  <use x="247.523438" y="576.96875" xlink:href="#b"/>
 </g>
</svg>
