<svg width="24" height="27" viewBox="0 0 24 27" fill="none" xmlns="http://www.w3.org/2000/svg">
<path d="M15.875 0.375C18.2912 0.375 20.25 2.33383 20.25 4.75V9.125L19.4126 22.523C19.2685 24.8283 17.3564 26.625 15.0464 26.625H5.76321C3.45408 26.625 1.54279 24.8304 1.39696 22.5259L0.5625 9.31342V4.75C0.5625 2.33383 2.52133 0.375 4.9375 0.375H15.875ZM15.875 2.5625H4.9375C3.72942 2.5625 2.75 3.54192 2.75 4.75V9.24429L3.58038 22.388C3.65329 23.54 4.60908 24.4375 5.7635 24.4375H15.0461C16.2011 24.4375 17.1575 23.5392 17.2295 22.3865L18.0625 9.05675V4.75C18.0625 3.54192 17.0831 2.5625 15.875 2.5625ZM22.4375 1.45621C23.022 1.45621 23.4995 1.915 23.5298 2.49192L23.5312 2.55025L23.528 9.209L22.4343 23.4277C22.3879 24.03 21.862 24.4807 21.2598 24.4343C20.677 24.3894 20.236 23.8956 20.2503 23.3178L20.2532 23.2598L21.3438 9.125V2.54996C21.3438 1.94621 21.8335 1.45621 22.4375 1.45621ZM13.6875 3.65625C15.4996 3.65625 16.9688 5.12538 16.9688 6.9375V11.3125C16.9688 13.1246 15.4996 14.5938 13.6875 14.5938H7.125C5.31288 14.5938 3.84375 13.1246 3.84375 11.3125V6.9375C3.84375 5.12538 5.31288 3.65625 7.125 3.65625H13.6875ZM13.6875 5.84375H7.125C6.52096 5.84375 6.03125 6.33346 6.03125 6.9375V11.3125C6.03125 11.9165 6.52096 12.4062 7.125 12.4062H13.6875C14.2915 12.4062 14.7812 11.9165 14.7812 11.3125V6.9375C14.7812 6.33346 14.2915 5.84375 13.6875 5.84375Z" fill="#1195A2"/>
</svg>
